<?xml version="1.0" encoding="utf-8"?>
<!-- Generator: Adobe Illustrator 22.0.1, SVG Export Plug-In . SVG Version: 6.00 Build 0)  -->
<svg version="1.1" id="Layer_1" xmlns="http://www.w3.org/2000/svg" xmlns:xlink="http://www.w3.org/1999/xlink" x="0px" y="0px"
	 viewBox="0 0 595.3 841.9" style="enable-background:new 0 0 595.3 841.9;" xml:space="preserve">
<style type="text/css">
	.st0{clip-path:url(#SVGID_2_);}
	.st1{fill:#17316C;}
	.st2{fill:#18326C;}
	.st3{fill:#18326D;}
	.st4{fill:#19336E;}
	.st5{fill:#19346E;}
	.st6{fill:#1A346F;}
	.st7{fill:#1A3570;}
	.st8{fill:#1B3670;}
	.st9{fill:#1B3671;}
	.st10{fill:#1C3772;}
	.st11{fill:#1C3872;}
	.st12{fill:#1D3873;}
	.st13{fill:#1D3974;}
	.st14{fill:#1E3A74;}
	.st15{fill:#1E3B75;}
	.st16{fill:#1F3B76;}
	.st17{fill:#1F3C76;}
	.st18{fill:#203D77;}
	.st19{fill:#213D78;}
	.st20{fill:#213E78;}
	.st21{fill:#223F79;}
	.st22{fill:#223F7A;}
	.st23{fill:#23407A;}
	.st24{fill:#23417B;}
	.st25{fill:#24417C;}
	.st26{fill:#25427C;}
	.st27{fill:#25437D;}
	.st28{fill:#26437E;}
	.st29{fill:#26447F;}
	.st30{fill:#27457F;}
	.st31{fill:#274680;}
	.st32{fill:#284681;}
	.st33{fill:#294781;}
	.st34{fill:#294882;}
	.st35{fill:#2A4883;}
	.st36{fill:#2A4984;}
	.st37{fill:#2B4A84;}
	.st38{fill:#2B4B85;}
	.st39{fill:#2C4B86;}
	.st40{fill:#2C4C87;}
	.st41{fill:#2D4D87;}
	.st42{fill:#2E4D88;}
	.st43{fill:#2E4E89;}
	.st44{fill:#2F4F8A;}
	.st45{fill:#30508B;}
	.st46{fill:#30518C;}
	.st47{fill:#31528D;}
	.st48{fill:#32528D;}
	.st49{fill:#32538E;}
	.st50{fill:#33548F;}
	.st51{fill:#335490;}
	.st52{fill:#345590;}
	.st53{fill:#345691;}
	.st54{fill:#355792;}
	.st55{fill:#365793;}
	.st56{fill:#365894;}
	.st57{fill:#375994;}
	.st58{fill:#375A95;}
	.st59{fill:#385A96;}
	.st60{fill:#395B97;}
	.st61{fill:#395C97;}
	.st62{fill:#3A5C98;}
	.st63{fill:#3A5D99;}
	.st64{fill:#3B5E9A;}
	.st65{fill:#3B5F9B;}
	.st66{fill:#3C5F9B;}
	.st67{fill:#3D609C;}
	.st68{fill:#3D619D;}
	.st69{fill:#3E629E;}
	.st70{fill:#3E629F;}
	.st71{fill:#3F63A0;}
	.st72{fill:#4064A1;}
	.st73{fill:#4065A1;}
	.st74{fill:#4165A2;}
	.st75{fill:#4166A3;}
	.st76{fill:#4267A4;}
	.st77{fill:#4368A5;}
	.st78{fill:#4369A6;}
	.st79{fill:#4469A6;}
	.st80{fill:#446AA7;}
	.st81{fill:#456BA8;}
	.st82{fill:#466CA9;}
	.st83{fill:#466CAA;}
	.st84{fill:#476DAB;}
	.st85{fill:#476EAC;}
	.st86{fill:#486FAD;}
	.st87{fill:#4970AE;}
	.st88{fill:#4970AF;}
	.st89{fill:#4A71AF;}
	.st90{fill:#4A72B0;}
	.st91{fill:#4B73B1;}
	.st92{fill:#4C74B2;}
	.st93{fill:#4C75B3;}
	.st94{fill:#4D75B5;}
	.st95{fill:#4D76B6;}
	.st96{fill:#4E77B7;}
	.st97{fill:#4F78B8;}
	.st98{fill:#4F79B9;}
	.st99{fill:#507ABB;}
	.st100{fill:#517BBC;}
	.st101{fill:#517CBE;}
	.st102{fill:#527DBF;}
	.st103{opacity:0.2;fill:#FFFFFF;}
	.st104{fill:#FFFFFF;}
</style>
<g>
	<defs>
		<path id="SVGID_1_" d="M147.2,301.9c0-13.8,11.2-25,25-25h238.1c13.8,0,25,11.2,25,25v238c0,13.8-11.2,25-25,25H172.2
			c-13.8,0-25-11.2-25-25V301.9L147.2,301.9z"/>
	</defs>
	<clipPath id="SVGID_2_">
		<use xlink:href="#SVGID_1_"  style="overflow:visible;"/>
	</clipPath>
	<g class="st0">
		<path class="st1" d="M549.8,494.6c0-141.4-114.8-256.2-256.2-256.2c-141.5,0-256.2,114.8-256.2,256.2
			c0,141.5,114.8,256.3,256.2,256.3C435,750.9,549.8,636.1,549.8,494.6"/>
		<path class="st2" d="M547.6,494.6c0-140.2-113.8-254.1-254.1-254.1c-140.2,0-254.1,113.8-254.1,254.1
			c0,140.2,113.8,254.1,254.1,254.1C433.8,748.7,547.6,634.8,547.6,494.6"/>
		<path class="st3" d="M545.4,494.6c0-139-112.8-251.9-251.9-251.9c-139,0-251.9,112.8-251.9,251.9c0,139,112.8,251.9,251.9,251.9
			C432.6,746.5,545.4,633.6,545.4,494.6"/>
		<path class="st4" d="M543.2,494.6c0-137.8-111.9-249.7-249.7-249.7c-137.8,0-249.7,111.9-249.7,249.7
			c0,137.8,111.9,249.7,249.7,249.7C431.4,744.3,543.2,632.4,543.2,494.6"/>
		<path class="st5" d="M541.1,494.6c0-136.6-110.9-247.5-247.5-247.5C156.9,247.1,46,358,46,494.6c0,136.6,110.9,247.5,247.5,247.5
			C430.2,742.1,541.1,631.2,541.1,494.6"/>
		<path class="st6" d="M538.9,494.6c0-135.4-109.9-245.4-245.4-245.4c-135.4,0-245.4,109.9-245.4,245.4
			C48.2,630,158.1,740,293.5,740C429,740,538.9,630,538.9,494.6"/>
		<path class="st7" d="M536.7,494.6c0-134.2-108.9-243.2-243.2-243.2c-134.2,0-243.2,108.9-243.2,243.2
			c0,134.2,108.9,243.2,243.2,243.2C427.8,737.8,536.7,628.8,536.7,494.6"/>
		<path class="st8" d="M534.5,494.6c0-133-108-241-241-241c-133,0-241,108-241,241s108,241,241,241
			C426.6,735.6,534.5,627.6,534.5,494.6"/>
		<path class="st9" d="M532.4,494.6c0-131.8-107-238.8-238.8-238.8c-131.8,0-238.8,107-238.8,238.8c0,131.8,107,238.8,238.8,238.8
			C425.4,733.4,532.4,626.4,532.4,494.6"/>
		<path class="st10" d="M530.2,494.6c0-130.6-106-236.7-236.7-236.7c-130.6,0-236.7,106-236.7,236.7s106,236.7,236.7,236.7
			C424.2,731.3,530.2,625.2,530.2,494.6"/>
		<path class="st11" d="M528,494.6c0-129.4-105-234.5-234.5-234.5c-129.4,0-234.5,105-234.5,234.5c0,129.4,105,234.5,234.5,234.5
			C423,729.1,528,624,528,494.6"/>
		<path class="st12" d="M525.8,494.6c0-128.2-104.1-232.3-232.3-232.3c-128.2,0-232.3,104.1-232.3,232.3s104.1,232.3,232.3,232.3
			C421.8,726.9,525.8,622.8,525.8,494.6"/>
		<path class="st13" d="M523.7,494.6c0-127-103.1-230.1-230.1-230.1c-127,0-230.1,103.1-230.1,230.1c0,127,103.1,230.1,230.1,230.1
			C420.6,724.7,523.7,621.6,523.7,494.6"/>
		<path class="st14" d="M521.5,494.6c0-125.8-102.1-227.9-228-227.9c-125.8,0-227.9,102.1-227.9,227.9s102.1,228,227.9,228
			C419.4,722.6,521.5,620.4,521.5,494.6"/>
		<path class="st15" d="M519.3,494.6c0-124.6-101.1-225.8-225.8-225.8C168.9,268.8,67.8,370,67.8,494.6
			c0,124.6,101.1,225.8,225.8,225.8C418.2,720.4,519.3,619.2,519.3,494.6"/>
		<path class="st16" d="M517.1,494.6C517.1,371.2,417,271,293.5,271C170.1,271,69.9,371.2,69.9,494.6s100.2,223.6,223.6,223.6
			C417,718.2,517.1,618,517.1,494.6"/>
		<path class="st17" d="M515,494.6c0-122.2-99.2-221.4-221.4-221.4c-122.2,0-221.4,99.2-221.4,221.4c0,122.2,99.2,221.4,221.4,221.4
			C415.8,716,515,616.8,515,494.6"/>
		<path class="st18" d="M512.8,494.6c0-121-98.2-219.2-219.2-219.2c-121,0-219.2,98.2-219.2,219.2s98.2,219.2,219.2,219.2
			C414.6,713.8,512.8,615.6,512.8,494.6"/>
		<path class="st19" d="M510.6,494.6c0-119.8-97.2-217.1-217.1-217.1c-119.8,0-217.1,97.2-217.1,217.1
			c0,119.8,97.2,217.1,217.1,217.1C413.4,711.7,510.6,614.4,510.6,494.6"/>
		<path class="st20" d="M508.4,494.6c0-118.6-96.3-214.9-214.9-214.9c-118.6,0-214.9,96.3-214.9,214.9s96.3,214.9,214.9,214.9
			C412.1,709.5,508.4,613.2,508.4,494.6"/>
		<path class="st21" d="M506.2,494.6c0-117.4-95.3-212.7-212.7-212.7c-117.4,0-212.7,95.3-212.7,212.7
			c0,117.4,95.3,212.7,212.7,212.7C410.9,707.3,506.2,612,506.2,494.6"/>
		<path class="st22" d="M504.1,494.6c0-116.2-94.3-210.5-210.5-210.5C177.3,284.1,83,378.4,83,494.6c0,116.2,94.3,210.5,210.5,210.5
			C409.7,705.1,504.1,610.8,504.1,494.6"/>
		<path class="st23" d="M501.9,494.6c0-115-93.3-208.4-208.4-208.4c-115,0-208.4,93.3-208.4,208.4c0,115,93.3,208.4,208.4,208.4
			C408.5,703,501.9,609.6,501.9,494.6"/>
		<path class="st24" d="M499.7,494.6c0-113.8-92.4-206.2-206.2-206.2c-113.8,0-206.2,92.4-206.2,206.2
			c0,113.8,92.4,206.2,206.2,206.2C407.3,700.8,499.7,608.4,499.7,494.6"/>
		<path class="st25" d="M497.5,494.6c0-112.6-91.4-204-204-204c-112.6,0-204,91.4-204,204c0,112.6,91.4,204,204,204
			C406.1,698.6,497.5,607.2,497.5,494.6"/>
		<path class="st26" d="M495.4,494.6c0-111.4-90.4-201.8-201.8-201.8c-111.4,0-201.8,90.4-201.8,201.8
			c0,111.4,90.4,201.8,201.8,201.8C404.9,696.4,495.4,606,495.4,494.6"/>
		<path class="st27" d="M493.2,494.6c0-110.2-89.4-199.7-199.6-199.7c-110.2,0-199.7,89.4-199.7,199.7
			c0,110.2,89.4,199.6,199.7,199.6C403.7,694.2,493.2,604.8,493.2,494.6"/>
		<path class="st28" d="M491,494.6c0-109-88.5-197.5-197.5-197.5c-109,0-197.5,88.5-197.5,197.5s88.5,197.5,197.5,197.5
			C402.5,692.1,491,603.6,491,494.6"/>
		<path class="st29" d="M488.8,494.6c0-107.8-87.5-195.3-195.3-195.3c-107.8,0-195.3,87.5-195.3,195.3
			c0,107.8,87.5,195.3,195.3,195.3C401.3,689.9,488.8,602.4,488.8,494.6"/>
		<path class="st30" d="M486.6,494.6c0-106.6-86.5-193.1-193.1-193.1c-106.6,0-193.1,86.5-193.1,193.1
			c0,106.6,86.5,193.1,193.1,193.1C400.1,687.7,486.6,601.2,486.6,494.6"/>
		<path class="st31" d="M484.5,494.6c0-105.4-85.5-190.9-190.9-190.9c-105.4,0-190.9,85.5-190.9,190.9
			c0,105.4,85.5,190.9,190.9,190.9C398.9,685.5,484.5,600,484.5,494.6"/>
		<path class="st32" d="M482.3,494.6c0-104.2-84.6-188.8-188.8-188.8c-104.2,0-188.8,84.6-188.8,188.8s84.6,188.8,188.8,188.8
			C397.7,683.4,482.3,598.8,482.3,494.6"/>
		<path class="st33" d="M480.1,494.6c0-103-83.6-186.6-186.6-186.6c-103,0-186.6,83.6-186.6,186.6c0,103,83.6,186.6,186.6,186.6
			C396.5,681.2,480.1,597.6,480.1,494.6"/>
		<path class="st34" d="M477.9,494.6c0-101.8-82.6-184.4-184.4-184.4c-101.8,0-184.4,82.6-184.4,184.4
			c0,101.8,82.6,184.4,184.4,184.4C395.3,679,477.9,596.4,477.9,494.6"/>
		<path class="st35" d="M475.8,494.6c0-100.6-81.6-182.2-182.2-182.2c-100.6,0-182.2,81.6-182.2,182.2
			c0,100.6,81.6,182.2,182.2,182.2C394.1,676.8,475.8,595.2,475.8,494.6"/>
		<path class="st36" d="M473.6,494.6c0-99.4-80.7-180.1-180.1-180.1c-99.4,0-180.1,80.7-180.1,180.1s80.7,180.1,180.1,180.1
			C392.9,674.7,473.6,594,473.6,494.6"/>
		<path class="st37" d="M471.4,494.6c0-98.2-79.7-177.9-177.9-177.9c-98.2,0-177.9,79.7-177.9,177.9c0,98.2,79.7,177.9,177.9,177.9
			C391.7,672.5,471.4,592.8,471.4,494.6"/>
		<path class="st38" d="M469.2,494.6c0-97-78.7-175.7-175.7-175.7c-97,0-175.7,78.7-175.7,175.7c0,97,78.7,175.7,175.7,175.7
			C390.5,670.3,469.2,591.6,469.2,494.6"/>
		<path class="st39" d="M467.1,494.6c0-95.8-77.7-173.5-173.5-173.5c-95.8,0-173.5,77.7-173.5,173.5c0,95.8,77.7,173.5,173.5,173.5
			C389.3,668.1,467.1,590.4,467.1,494.6"/>
		<path class="st40" d="M464.9,494.6c0-94.6-76.8-171.4-171.3-171.4c-94.6,0-171.4,76.8-171.4,171.4c0,94.6,76.8,171.4,171.4,171.4
			C388.1,666,464.9,589.2,464.9,494.6"/>
		<path class="st41" d="M462.7,494.6c0-93.4-75.8-169.2-169.2-169.2c-93.4,0-169.2,75.8-169.2,169.2c0,93.4,75.8,169.2,169.2,169.2
			C386.9,663.8,462.7,588,462.7,494.6"/>
		<path class="st42" d="M460.5,494.6c0-92.2-74.8-167-167-167c-92.2,0-167,74.8-167,167c0,92.2,74.8,167,167,167
			C385.7,661.6,460.5,586.8,460.5,494.6"/>
		<path class="st43" d="M458.3,494.6c0-91-73.8-164.8-164.8-164.8c-91,0-164.8,73.8-164.8,164.8c0,91,73.8,164.8,164.8,164.8
			C384.5,659.4,458.3,585.6,458.3,494.6"/>
		<path class="st44" d="M456.2,494.6c0-89.8-72.9-162.6-162.6-162.6c-89.8,0-162.6,72.9-162.6,162.6c0,89.8,72.9,162.6,162.6,162.6
			C383.3,657.2,456.2,584.4,456.2,494.6"/>
		<path class="st44" d="M454,494.6c0-88.6-71.9-160.5-160.5-160.5c-88.6,0-160.5,71.9-160.5,160.5c0,88.6,71.9,160.5,160.5,160.5
			C382.1,655.1,454,583.2,454,494.6"/>
		<path class="st45" d="M451.8,494.6c0-87.4-70.9-158.3-158.3-158.3c-87.4,0-158.3,70.9-158.3,158.3c0,87.4,70.9,158.3,158.3,158.3
			C380.9,652.9,451.8,582,451.8,494.6"/>
		<path class="st46" d="M449.6,494.6c0-86.2-69.9-156.1-156.1-156.1c-86.2,0-156.1,69.9-156.1,156.1c0,86.2,69.9,156.1,156.1,156.1
			C379.7,650.7,449.6,580.8,449.6,494.6"/>
		<path class="st47" d="M447.5,494.6c0-85-69-153.9-153.9-153.9c-85,0-153.9,69-153.9,153.9c0,85,69,153.9,153.9,153.9
			C378.5,648.5,447.5,579.6,447.5,494.6"/>
		<path class="st48" d="M445.3,494.6c0-83.8-68-151.8-151.8-151.8c-83.8,0-151.8,68-151.8,151.8c0,83.8,68,151.8,151.8,151.8
			C377.3,646.4,445.3,578.4,445.3,494.6"/>
		<path class="st49" d="M443.1,494.6c0-82.6-67-149.6-149.6-149.6c-82.6,0-149.6,67-149.6,149.6c0,82.6,67,149.6,149.6,149.6
			C376.1,644.2,443.1,577.2,443.1,494.6"/>
		<path class="st50" d="M440.9,494.6c0-81.4-66-147.4-147.4-147.4c-81.4,0-147.4,66-147.4,147.4c0,81.4,66,147.4,147.4,147.4
			C374.9,642,440.9,576,440.9,494.6"/>
		<path class="st51" d="M438.8,494.6c0-80.2-65.1-145.2-145.2-145.2c-80.2,0-145.2,65.1-145.2,145.2s65.1,145.2,145.2,145.2
			C373.7,639.8,438.8,574.8,438.8,494.6"/>
		<path class="st52" d="M436.6,494.6c0-79-64.1-143.1-143.1-143.1c-79,0-143.1,64.1-143.1,143.1c0,79,64.1,143,143.1,143
			C372.5,637.6,436.6,573.6,436.6,494.6"/>
		<path class="st53" d="M434.4,494.6c0-77.8-63.1-140.9-140.9-140.9c-77.8,0-140.9,63.1-140.9,140.9c0,77.8,63.1,140.9,140.9,140.9
			C371.3,635.5,434.4,572.4,434.4,494.6"/>
		<path class="st54" d="M432.2,494.6c0-76.6-62.1-138.7-138.7-138.7c-76.6,0-138.7,62.1-138.7,138.7S217,633.3,293.5,633.3
			C370.1,633.3,432.2,571.2,432.2,494.6"/>
		<path class="st55" d="M430.1,494.6c0-75.4-61.2-136.5-136.5-136.5c-75.4,0-136.5,61.2-136.5,136.5c0,75.4,61.2,136.5,136.5,136.5
			C368.9,631.1,430.1,570,430.1,494.6"/>
		<path class="st56" d="M427.9,494.6c0-74.2-60.2-134.3-134.3-134.3c-74.2,0-134.3,60.2-134.3,134.3c0,74.2,60.2,134.3,134.3,134.3
			C367.7,628.9,427.9,568.8,427.9,494.6"/>
		<path class="st57" d="M425.7,494.6c0-73-59.2-132.2-132.2-132.2c-73,0-132.2,59.2-132.2,132.2c0,73,59.2,132.2,132.2,132.2
			C366.5,626.8,425.7,567.6,425.7,494.6"/>
		<path class="st58" d="M423.5,494.6c0-71.8-58.2-130-130-130c-71.8,0-130,58.2-130,130c0,71.8,58.2,130,130,130
			C365.3,624.6,423.5,566.4,423.5,494.6"/>
		<path class="st59" d="M421.3,494.6c0-70.6-57.3-127.8-127.8-127.8c-70.6,0-127.8,57.3-127.8,127.8c0,70.6,57.3,127.8,127.8,127.8
			C364.1,622.4,421.3,565.2,421.3,494.6"/>
		<path class="st60" d="M419.2,494.6c0-69.4-56.3-125.6-125.6-125.6c-69.4,0-125.6,56.3-125.6,125.6c0,69.4,56.3,125.6,125.6,125.6
			C362.9,620.2,419.2,564,419.2,494.6"/>
		<path class="st61" d="M417,494.6c0-68.1-55.3-123.5-123.5-123.5c-68.2,0-123.5,55.3-123.5,123.5c0,68.1,55.3,123.5,123.5,123.5
			C361.7,618.1,417,562.7,417,494.6"/>
		<path class="st62" d="M414.8,494.6c0-66.9-54.3-121.3-121.3-121.3c-66.9,0-121.3,54.3-121.3,121.3c0,66.9,54.3,121.3,121.3,121.3
			C360.5,615.9,414.8,561.5,414.8,494.6"/>
		<path class="st63" d="M412.6,494.6c0-65.7-53.4-119.1-119.1-119.1c-65.7,0-119.1,53.4-119.1,119.1c0,65.7,53.4,119.1,119.1,119.1
			C359.3,613.7,412.6,560.3,412.6,494.6"/>
		<path class="st64" d="M410.5,494.6c0-64.5-52.4-116.9-116.9-116.9c-64.5,0-116.9,52.4-116.9,116.9c0,64.5,52.4,116.9,116.9,116.9
			C358.1,611.5,410.5,559.1,410.5,494.6"/>
		<path class="st65" d="M408.3,494.6c0-63.3-51.4-114.8-114.8-114.8c-63.3,0-114.8,51.4-114.8,114.8c0,63.3,51.4,114.8,114.8,114.8
			C356.9,609.4,408.3,557.9,408.3,494.6"/>
		<path class="st66" d="M406.1,494.6c0-62.1-50.4-112.6-112.6-112.6C231.4,382,181,432.5,181,494.6c0,62.1,50.4,112.6,112.6,112.6
			C355.7,607.2,406.1,556.7,406.1,494.6"/>
		<path class="st67" d="M403.9,494.6c0-60.9-49.5-110.4-110.4-110.4c-60.9,0-110.4,49.5-110.4,110.4c0,60.9,49.5,110.4,110.4,110.4
			C354.5,605,403.9,555.5,403.9,494.6"/>
		<path class="st68" d="M401.8,494.6c0-59.7-48.5-108.2-108.2-108.2c-59.7,0-108.2,48.5-108.2,108.2c0,59.7,48.5,108.2,108.2,108.2
			C353.3,602.8,401.8,554.3,401.8,494.6"/>
		<path class="st69" d="M399.6,494.6c0-58.5-47.5-106-106-106c-58.5,0-106,47.5-106,106c0,58.5,47.5,106,106,106
			C352.1,600.6,399.6,553.1,399.6,494.6"/>
		<path class="st70" d="M397.4,494.6c0-57.3-46.5-103.9-103.9-103.9c-57.3,0-103.9,46.5-103.9,103.9c0,57.3,46.5,103.9,103.9,103.9
			C350.9,598.5,397.4,551.9,397.4,494.6"/>
		<path class="st71" d="M395.2,494.6c0-56.1-45.6-101.7-101.7-101.7c-56.1,0-101.7,45.6-101.7,101.7c0,56.1,45.6,101.7,101.7,101.7
			C349.7,596.3,395.2,550.7,395.2,494.6"/>
		<path class="st72" d="M393,494.6c0-54.9-44.6-99.5-99.5-99.5c-54.9,0-99.5,44.6-99.5,99.5s44.6,99.5,99.5,99.5
			C348.5,594.1,393,549.5,393,494.6"/>
		<path class="st73" d="M390.9,494.6c0-53.7-43.6-97.3-97.3-97.3c-53.7,0-97.3,43.6-97.3,97.3s43.6,97.3,97.3,97.3
			C347.3,591.9,390.9,548.3,390.9,494.6"/>
		<path class="st74" d="M388.7,494.6c0-52.5-42.6-95.2-95.2-95.2c-52.5,0-95.2,42.6-95.2,95.2c0,52.5,42.6,95.2,95.2,95.2
			C346.1,589.8,388.7,547.1,388.7,494.6"/>
		<path class="st75" d="M386.5,494.6c0-51.3-41.7-93-93-93c-51.3,0-93,41.7-93,93c0,51.3,41.7,93,93,93
			C344.9,587.6,386.5,545.9,386.5,494.6"/>
		<path class="st76" d="M384.3,494.6c0-50.1-40.7-90.8-90.8-90.8c-50.1,0-90.8,40.7-90.8,90.8c0,50.1,40.7,90.8,90.8,90.8
			C343.7,585.4,384.3,544.7,384.3,494.6"/>
		<path class="st77" d="M382.2,494.6c0-48.9-39.7-88.6-88.6-88.6c-48.9,0-88.6,39.7-88.6,88.6c0,48.9,39.7,88.6,88.6,88.6
			C342.5,583.2,382.2,543.5,382.2,494.6"/>
		<path class="st78" d="M380,494.6c0-47.7-38.7-86.5-86.5-86.5c-47.7,0-86.5,38.7-86.5,86.5c0,47.7,38.7,86.5,86.5,86.5
			C341.3,581.1,380,542.3,380,494.6"/>
		<path class="st79" d="M377.8,494.6c0-46.5-37.8-84.3-84.3-84.3c-46.5,0-84.3,37.8-84.3,84.3c0,46.5,37.8,84.3,84.3,84.3
			C340,578.9,377.8,541.1,377.8,494.6"/>
		<path class="st80" d="M375.6,494.6c0-45.3-36.8-82.1-82.1-82.1c-45.3,0-82.1,36.8-82.1,82.1c0,45.3,36.8,82.1,82.1,82.1
			C338.8,576.7,375.6,539.9,375.6,494.6"/>
		<path class="st81" d="M373.5,494.6c0-44.1-35.8-79.9-79.9-79.9c-44.1,0-79.9,35.8-79.9,79.9s35.8,79.9,79.9,79.9
			C337.6,574.5,373.5,538.7,373.5,494.6"/>
		<path class="st82" d="M371.3,494.6c0-42.9-34.8-77.7-77.7-77.7c-42.9,0-77.7,34.8-77.7,77.7c0,42.9,34.8,77.7,77.7,77.7
			C336.4,572.3,371.3,537.5,371.3,494.6"/>
		<path class="st83" d="M369.1,494.6c0-41.7-33.9-75.6-75.6-75.6S218,452.9,218,494.6c0,41.7,33.9,75.6,75.6,75.6
			S369.1,536.3,369.1,494.6"/>
		<path class="st84" d="M366.9,494.6c0-40.5-32.9-73.4-73.4-73.4c-40.5,0-73.4,32.9-73.4,73.4c0,40.5,32.9,73.4,73.4,73.4
			C334,568,366.9,535.1,366.9,494.6"/>
		<path class="st85" d="M364.7,494.6c0-39.3-31.9-71.2-71.2-71.2c-39.3,0-71.2,31.9-71.2,71.2s31.9,71.2,71.2,71.2
			C332.8,565.8,364.7,533.9,364.7,494.6"/>
		<path class="st86" d="M362.6,494.6c0-38.1-30.9-69-69-69c-38.1,0-69,30.9-69,69c0,38.1,30.9,69,69,69
			C331.6,563.6,362.6,532.7,362.6,494.6"/>
		<path class="st87" d="M360.4,494.6c0-36.9-30-66.9-66.9-66.9c-36.9,0-66.9,30-66.9,66.9c0,36.9,30,66.9,66.9,66.9
			C330.4,561.5,360.4,531.5,360.4,494.6"/>
		<path class="st88" d="M358.2,494.6c0-35.7-29-64.7-64.7-64.7c-35.7,0-64.7,29-64.7,64.7c0,35.7,29,64.7,64.7,64.7
			C329.2,559.3,358.2,530.3,358.2,494.6"/>
		<path class="st89" d="M356,494.6c0-34.5-28-62.5-62.5-62.5c-34.5,0-62.5,28-62.5,62.5c0,34.5,28,62.5,62.5,62.5
			C328,557.1,356,529.1,356,494.6"/>
		<path class="st90" d="M353.9,494.6c0-33.3-27-60.3-60.3-60.3c-33.3,0-60.3,27-60.3,60.3c0,33.3,27,60.3,60.3,60.3
			C326.8,554.9,353.9,527.9,353.9,494.6"/>
		<path class="st91" d="M351.7,494.6c0-32.1-26.1-58.2-58.2-58.2c-32.1,0-58.2,26.1-58.2,58.2c0,32.1,26.1,58.2,58.2,58.2
			C325.6,552.8,351.7,526.7,351.7,494.6"/>
		<path class="st92" d="M349.5,494.6c0-30.9-25.1-56-56-56c-30.9,0-56,25.1-56,56c0,30.9,25.1,56,56,56
			C324.4,550.6,349.5,525.5,349.5,494.6"/>
		<path class="st93" d="M347.3,494.6c0-29.7-24.1-53.8-53.8-53.8c-29.7,0-53.8,24.1-53.8,53.8c0,29.7,24.1,53.8,53.8,53.8
			C323.2,548.4,347.3,524.3,347.3,494.6"/>
		<path class="st94" d="M345.2,494.6c0-28.5-23.1-51.6-51.6-51.6c-28.5,0-51.6,23.1-51.6,51.6c0,28.5,23.1,51.6,51.6,51.6
			C322,546.2,345.2,523.1,345.2,494.6"/>
		<path class="st95" d="M343,494.6c0-27.3-22.2-49.4-49.4-49.4c-27.3,0-49.4,22.2-49.4,49.4c0,27.3,22.2,49.4,49.4,49.4
			C320.8,544,343,521.9,343,494.6"/>
		<path class="st96" d="M340.8,494.6c0-26.1-21.2-47.3-47.3-47.3c-26.1,0-47.3,21.2-47.3,47.3c0,26.1,21.2,47.3,47.3,47.3
			C319.6,541.9,340.8,520.7,340.8,494.6"/>
		<path class="st97" d="M338.6,494.6c0-24.9-20.2-45.1-45.1-45.1c-24.9,0-45.1,20.2-45.1,45.1c0,24.9,20.2,45.1,45.1,45.1
			C318.4,539.7,338.6,519.5,338.6,494.6"/>
		<path class="st98" d="M336.4,494.6c0-23.7-19.2-42.9-42.9-42.9c-23.7,0-42.9,19.2-42.9,42.9c0,23.7,19.2,42.9,42.9,42.9
			C317.2,537.5,336.4,518.3,336.4,494.6"/>
		<path class="st99" d="M334.3,494.6c0-22.5-18.2-40.7-40.7-40.7c-22.5,0-40.7,18.2-40.7,40.7c0,22.5,18.3,40.7,40.7,40.7
			C316,535.3,334.3,517.1,334.3,494.6"/>
		<path class="st100" d="M332.1,494.6c0-21.3-17.3-38.6-38.6-38.6c-21.3,0-38.6,17.3-38.6,38.6c0,21.3,17.3,38.6,38.6,38.6
			C314.8,533.2,332.1,515.9,332.1,494.6"/>
		<path class="st101" d="M329.9,494.6c0-20.1-16.3-36.4-36.4-36.4c-20.1,0-36.4,16.3-36.4,36.4c0,20.1,16.3,36.4,36.4,36.4
			C313.6,531,329.9,514.7,329.9,494.6"/>
		<path class="st102" d="M327.7,494.6c0-18.9-15.3-34.2-34.2-34.2c-18.9,0-34.2,15.3-34.2,34.2c0,18.9,15.3,34.2,34.2,34.2
			C312.4,528.8,327.7,513.5,327.7,494.6"/>
	</g>
</g>
<path class="st103" d="M147.2,400.8c39.9,15,90,23.9,144.3,23.9c54.1,0,103.9-8.8,143.8-23.7v-99.1c0-13.8-11.2-25-25-25H172.2
	c-13.8,0-25,11.2-25,25V400.8L147.2,400.8z"/>
<path class="st104" d="M281,379.6h27v-12.2v-12v-2c0-11.5,0.3-29.4,8.7-40.4c8.8-11.7,21-19.6,41.9-19.6c34,0,48.4,4.8,48.4,4.8
	l-6.8,40c0,0-11.2-3.3-21.8-3.3s-19.9,3.8-19.9,14.2v4.3v14v12.2h43l-3,39h-40v135.7H308V418.7h-27V379.6L281,379.6z"/>
<path class="st103" d="M155.5,508.4c0-11,8.9-20,20-20h230c11,0,20,9,20,20v26c0,11-9,20-20,20h-230c-11.1,0-20-9-20-20V508.4
	L155.5,508.4z"/>
</svg>
