<?xml version="1.0" encoding="utf-8"?>
<!-- Generator: Adobe Illustrator 22.0.1, SVG Export Plug-In . SVG Version: 6.00 Build 0)  -->
<svg version="1.1" id="Layer_1" xmlns="http://www.w3.org/2000/svg" xmlns:xlink="http://www.w3.org/1999/xlink" x="0px" y="0px"
	 viewBox="0 0 500 400" style="enable-background:new 0 0 500 400;" xml:space="preserve">
<style type="text/css">
	.st0{fill:#CCCCCC;}
</style>
<path class="st0" d="M440.9,148.7c-8.5,58.7-102.6,143.4-128.8,171.5c-6.2,6.7-54.7,50.6-56.6,51.9c-1.2,0.8-2.3,0.6-3.7,0.6
	c-1.5,0-18.7-9.5-24.5-16.7c-2.9-3.6-175.9-122-169.4-210c0.3-7.4-3.8-54.8,38.2-91.8c5.7-4.9,60-41.5,109.7-17.2
	c15.2,5,43.8,27.5,47.8,33.7c2.2-2.2,41.5-44,76.5-43.5C451.1,29.2,444.1,135.7,440.9,148.7z M172.1,50.7c-12.9-0.9-21.9,1.4-26.5,3
	c-7.5,2.6-16.8,5.8-23.5,10c-12.8,8.2-24.1,18.8-30,33c-5.9,14.3-7.2,30.7-8.5,48.7c0.8,16.2,10,39.2,18,53.3
	c8.6,15.1,36.6,51,48.7,63.3c3.2,3.2,95.7,79.3,97.3,80c1.3,0.6,54-44.6,55.3-46.7c40.7-41.3,76.3-75.2,95.2-104.2
	c4.8-7.3,34.1-45.4,15-90c-14-36.5-78.5-79-130-30.7c-13,13.2-28.2,39.3-31,40.4c-1.1,0.5-1,0.5-1.6-0.5c-0.4-0.7-2.6-5.1-3.3-6.6
	c-1.7-3.1-3.4-6-5.3-9c-3.7-5.7-7.9-11.2-12.6-16.2c-10-10.5-18.3-17.7-32.2-21.9C189.5,54.5,179.9,50.8,172.1,50.7z"/>
</svg>
