<?xml version="1.0" encoding="utf-8"?>
<!-- Generator: Adobe Illustrator 22.0.1, SVG Export Plug-In . SVG Version: 6.00 Build 0)  -->
<svg version="1.1" id="Layer_1" xmlns="http://www.w3.org/2000/svg" xmlns:xlink="http://www.w3.org/1999/xlink" x="0px" y="0px"
	 viewBox="0 0 150 100" style="enable-background:new 0 0 150 100;" xml:space="preserve">
<style type="text/css">
	.st0{fill-rule:evenodd;clip-rule:evenodd;fill:#CCCCCC;}
</style>
<path class="st0" d="M124.9,54.4c-3.9,0-7.7,0-11.6,0c0,12.9,0,25.7,0,38.6c-8.7,0-17.5,0-26.2,0c0-4.4,0-8.9,0-13.3
	c0-1.6-0.6-12.3-1.2-13.9C84,61,74,56,69,65c-1.9,3.3-2,4-2.1,14.5c0,4.5,0,9,0,13.5c-9.1,0-18.2,0-27.3,0c0-12.9,0-25.7,0-38.6
	c-3.8,0-7.6,0-11.5,0C28.2,54.2,75.5,6,76.3,5C76.5,5,124.9,54.2,124.9,54.4z M43.5,50.6c0,12.9,0,25.8,0,38.7c6.6,0,13.2,0,19.8,0
	c0,0,0-0.1,0-0.1c-0.2-0.4-0.1-1.5-0.1-2c0-1.7,0.1-13.3,0.1-14c0-0.8,0.6-6.5,0.7-6.6c0-0.2,1-5.6,7-9.6c6-2,11.9,0,12,0
	c1.3,0.8,4.1,3.2,5,4.6c2.8,3.9,2.8,11.3,2.8,18c0,2.3,0.2,10.5-0.1,9.7c6.3,0,18.9,0,18.9-0.1c-0.2-0.4-0.1-29.2-0.1-38.5
	c0.5-0.2,5.1-0.1,6.6-0.1c0,0,0,0,0-0.1c-0.6-0.3-39.3-40.1-39.6-40.3c-0.7,1-39.4,39.9-39.5,40.3C39.1,50.6,41.3,50.6,43.5,50.6z"
	/>
</svg>
