<?xml version="1.0" encoding="utf-8"?>
<!-- Generator: Adobe Illustrator 22.0.1, SVG Export Plug-In . SVG Version: 6.00 Build 0)  -->
<svg version="1.1" id="Layer_1" xmlns="http://www.w3.org/2000/svg" xmlns:xlink="http://www.w3.org/1999/xlink" x="0px" y="0px"
	 viewBox="0 0 150 100" style="enable-background:new 0 0 150 100;" xml:space="preserve">
<style type="text/css">
	.st0{fill-rule:evenodd;clip-rule:evenodd;fill:#CCCCCC;}
</style>
<circle class="st0" cx="27.8" cy="17.4" r="7.4"/>
<path class="st0" d="M53.6,15.3h66.3c0,0,3.4-0.1,3.4,2.3c0,2.4-3.4,2.3-3.4,2.3c-1.7,0-66.4,0-66.4,0s-3.6,0-3.6-2.3
	C50,15.3,53.6,15.3,53.6,15.3z"/>
<path class="st0" d="M53.2,44.9h66.3c0,0,3.4-0.1,3.4,2.3c0,2.4-3.4,2.3-3.4,2.3c-1.7,0-66.4,0-66.4,0s-3.6,0-3.6-2.3
	C49.6,44.9,53.1,44.9,53.2,44.9z"/>
<path class="st0" d="M53.5,74.6h66.3c0,0,3.4-0.1,3.4,2.3c0,2.4-3.4,2.3-3.4,2.3c-1.7,0-66.4,0-66.4,0s-3.6,0-3.6-2.3
	C49.8,74.6,53.4,74.6,53.5,74.6z"/>
<circle class="st0" cx="27.9" cy="47.3" r="7.4"/>
<circle class="st0" cx="27.7" cy="76.6" r="7.4"/>
</svg>
