<?xml version="1.0" encoding="utf-8"?>
<!-- Generator: Adobe Illustrator 22.0.1, SVG Export Plug-In . SVG Version: 6.00 Build 0)  -->
<svg version="1.1" id="Layer_1" xmlns="http://www.w3.org/2000/svg" xmlns:xlink="http://www.w3.org/1999/xlink" x="0px" y="0px"
	 viewBox="0 0 32 32" style="enable-background:new 0 0 32 32;" xml:space="preserve">
<style type="text/css">
	.st0{fill-rule:evenodd;clip-rule:evenodd;fill:#CCCCCC;}
</style>
<path class="st0" d="M26.8,13.6c0,0.3,3.6,13.4,3.9,14.2c-9.7,0-19.3,0-29,0c0,0,0,0,0,0c0.1-0.1,3.8-13.6,3.9-14.1c2,0,4,0,6,0
	c0,0,0,0,0,0c-0.1-0.1-0.2-0.3-0.2-0.5c-0.2-0.4-1.8-4.2-1.8-5.7c0.1-2.5,3-5.8,6.6-5.7c3.8,0,5.3,2.4,6.1,4.1
	c0.3,0.8,0.5,2,0.2,3.5c-0.3,1.1-1.6,4.1-1.6,4.4C22.8,13.6,24.8,13.6,26.8,13.6z M16.1,3.6c-2.4,0.1-4.5,1.8-4.6,3.8
	c-0.1,1.6,2.8,7.8,4.5,9.6c0,0,0,0,0,0c0.2-0.2,0.2-0.4,0.4-0.6c0.4-0.6,0.7-1.1,1.1-1.7c1.1-1.8,2.7-4.9,2.8-7.3
	C20.4,5.3,18.1,3.5,16.1,3.6z M16.1,6.5c0.8,0,1.6,0.6,1.6,1.6c0,0.9-0.8,1.4-1.6,1.4c-0.7,0-1.6-0.5-1.6-1.4
	C14.5,6.8,15.6,6.4,16.1,6.5z M7.2,15.7c0,0.3-2.6,9.4-2.7,9.8c7.7,0,15.5,0,23.3,0c0-0.4-2.6-9.5-2.7-9.8c-1.9,0-3.7,0-5.6,0
	c-0.7,1.3-3.3,5.1-3.4,5.2c-0.1-0.2-3.3-5.1-3.4-5.2C10.9,15.7,9,15.7,7.2,15.7z"/>
</svg>
