<?xml version="1.0" encoding="utf-8"?>
<!-- Generator: Adobe Illustrator 22.0.1, SVG Export Plug-In . SVG Version: 6.00 Build 0)  -->
<svg version="1.1" id="Layer_1" xmlns="http://www.w3.org/2000/svg" xmlns:xlink="http://www.w3.org/1999/xlink" x="0px" y="0px"
	 viewBox="0 0 400 400" style="enable-background:new 0 0 400 400;" xml:space="preserve">
<style type="text/css">
	.st0{fill-rule:evenodd;clip-rule:evenodd;stroke:#CC0033;stroke-width:4;stroke-miterlimit:10;}
	.st1{fill-rule:evenodd;clip-rule:evenodd;fill:#CC0033;}
</style>
<path class="st0" d="M293.9,363.4C274.2,378,250.5,391,201.3,391c-95.1,0-188.8-74.8-188.8-191.7c0-98.7,75.3-191.8,188.8-191.8
	C318.6,7.5,391,108.9,391,199.3c0,92.2-59.3,140.5-69.8,148.4l13.1,17.9l-94.2-5.2l29.6-79.7l14.6,16c8.1-6.5,39.5-42.7,39.5-97.3
	c0-66-51.5-132.4-122.5-132.7c-66.9-0.3-123,61.9-122.3,132.7c0.9,91.3,76.2,132.4,122.3,133.4c31.8,0.7,46.4-9.6,54.1-13.3
	l-15.2,41L293.9,363.4z"/>
<path class="st1" d="M184.6,332.2l107.2-217.1L78.4,220.8l104.7,3.3L184.6,332.2z"/>
</svg>
