<?xml version="1.0" encoding="utf-8"?>
<!-- Generator: Adobe Illustrator 22.0.1, SVG Export Plug-In . SVG Version: 6.00 Build 0)  -->
<svg version="1.1" id="Layer_1" xmlns="http://www.w3.org/2000/svg" xmlns:xlink="http://www.w3.org/1999/xlink" x="0px" y="0px"
	 viewBox="0 0 50 50" style="enable-background:new 0 0 50 50;" xml:space="preserve">
<style type="text/css">
	.st0{fill-rule:evenodd;clip-rule:evenodd;fill:#CCCCCB;}
	.st1{fill:#CCCCCB;}
</style>
<path class="st0" d="M30.6,17.8c-0.1,3.4-2.2,5.2-5.8,5.3c-1.1,0-5.2-0.3-5.2-5.4c0-3.7,3.1-5.5,5.5-5.5
	C26.9,12.3,30.7,13,30.6,17.8z M16.8,31.6l0,6.4h16.5c0,0,0-3.5,0-6.4c0-2.5-3.5-6.4-8.2-6.4C21.7,25.1,16.8,26.7,16.8,31.6H15
	c0.2-3.9,1.5-4.9,2.4-5.7c1.5-1.4,3.8-1.8,3.8-1.8s-3.7-1.8-3.5-6.5c0.2-4.8,4.3-7.2,7.6-7.1s7.2,3.1,7.1,7.4s-3.2,6.1-3.2,6.1
	s-0.4,0.2-0.3,0.2c3.3,1.1,6.1,4.2,6.3,6.8c0.1,1.3,0,2.7,0,2.7s0,2.5,0,4.3c0,1.9-1.9,1.9-1.9,1.9H18.6c0,0,0,0-1.8,0
	c-1.8,0-1.8-1.9-1.8-1.9l0-6.4H16.8z"/>
<path class="st1" d="M45,26.5c0,5.5-2.2,10.5-5.8,14.1c-3.6,3.6-8.5,5.8-14,5.8s-10.4-2.2-14-5.8C7.6,37,5.4,32,5.4,26.5
	c0-2.9,0.6-5.7,1.7-8.2c1-2.2,2.4-4.2,4.1-5.9c3.6-3.6,8.5-5.8,14-5.8s10.4,2.2,14,5.8S45,21,45,26.5z M37.4,14.2
	C34.3,11,29.9,9,25.1,9s-9.2,2-12.3,5.1c-1.5,1.5-2.7,3.3-3.6,5.2c-1,2.2-1.5,4.6-1.5,7.2c0,4.8,2,9.2,5.1,12.4
	c3.2,3.2,7.5,5.1,12.3,5.1s9.2-2,12.3-5.1c3.2-3.2,5.1-7.6,5.1-12.4S40.6,17.4,37.4,14.2z"/>
</svg>
