<?xml version="1.0" encoding="utf-8"?>
<!-- Generator: Adobe Illustrator 22.0.1, SVG Export Plug-In . SVG Version: 6.00 Build 0)  -->
<svg version="1.1" id="Layer_1" xmlns="http://www.w3.org/2000/svg" xmlns:xlink="http://www.w3.org/1999/xlink" x="0px" y="0px"
	 viewBox="0 0 32 32" style="enable-background:new 0 0 32 32;" xml:space="preserve">
<style type="text/css">
	.st0{fill-rule:evenodd;clip-rule:evenodd;fill:#CCCCCC;}
</style>
<path class="st0" d="M15.8,3.4c0.4,0,0.8,0.3,1.1,0.5c0.7,0.4,11.2,5.5,12,5.8c0.3,0.2,0.8,0.3,0.9,0.7c0.2,0.6-0.5,0.8-0.8,1
	c-0.8,0.4-3.2,1.7-3.6,1.8c0,0,0,0,0,0c0.3,0.2,4.2,1.9,4.4,2.3c0.3,0.7-0.5,0.9-0.8,1.1c-1.2,0.6-2.4,1.2-3.6,1.8c0,0,0,0,0.1,0
	c0.3,0.2,2.5,1.3,3.2,1.6c0.5,0.3,1.1,0.3,1.1,1.1c-0.1,0.1-0.1,0.3-0.2,0.3C29.3,21.5,16.1,28,15.8,28C15.5,27.9,2.2,21.5,2,21
	c0-0.1,0-0.2,0-0.4c0.1-0.1,0.1-0.3,0.2-0.3c0.3-0.2,4-1.8,4.2-2.1c-1.2-0.6-2.4-1.2-3.6-1.8c-0.3-0.2-1-0.3-0.9-1
	c0.1-0.5,0.8-0.6,1.2-0.8c1.1-0.5,2.1-1.1,3.2-1.6c0,0,0,0-0.1,0c-0.3-0.2-2.5-1.3-3.2-1.6C2.6,11.2,2,11.1,2,10.3
	C2.1,10.2,2.1,10,2.3,10c0.3-0.2,0.6-0.3,0.9-0.4c0.8-0.4,12.1-5.9,12.4-6.1C15.7,3.4,15.7,3.4,15.8,3.4z M15.9,4.7
	c-0.1,0.1-11.5,5.7-11.7,5.7c0,0,0,0,0.1,0c0.2,0.2,11.6,5.7,11.7,5.7c0.3-0.1,11.5-5.6,11.7-5.7c0,0,0,0,0,0
	C27.4,10.4,16.2,4.8,15.9,4.7z M8,13.8c-0.2,0.2-3.7,1.7-3.8,1.9c0.3,0.1,11.4,5.7,11.8,5.7c0.2-0.2,11.6-5.6,11.7-5.8
	c-0.3-0.1-3.8-1.8-3.8-1.8c-0.2,0.1-7.6,3.7-7.8,3.8C15.7,17.7,9,14.3,8,13.8z M7.9,19c-0.3,0.3-3.5,1.8-3.8,1.8c0,0,0,0,0.1,0
	c0.2,0.2,11.6,5.7,11.7,5.7c0.3-0.1,11.5-5.6,11.7-5.7c0,0,0,0,0,0c-1-0.5-3.5-1.8-3.9-1.8c-0.2,0.2-7.7,3.9-8,3.8
	C15.5,22.7,8.2,19,7.9,19z"/>
</svg>
