<?xml version="1.0" encoding="utf-8"?>
<!-- Generator: Adobe Illustrator 22.0.1, SVG Export Plug-In . SVG Version: 6.00 Build 0)  -->
<svg version="1.1" id="Layer_1" xmlns="http://www.w3.org/2000/svg" xmlns:xlink="http://www.w3.org/1999/xlink" x="0px" y="0px"
	 viewBox="0 0 1920 1080" style="enable-background:new 0 0 1920 1080;" xml:space="preserve">
<style type="text/css">
	.st0{stroke:#FFFFFF;stroke-miterlimit:10;}
	.st1{fill-rule:evenodd;clip-rule:evenodd;fill:#FFFFFF;stroke:#CC0033;stroke-width:4;stroke-miterlimit:10;}
	.st2{fill:#FFFFFF;stroke:#CC0033;stroke-width:4;stroke-miterlimit:10;}
	.st3{fill-rule:evenodd;clip-rule:evenodd;fill:#CC0033;}
	.st4{fill:#FFFFFF;}
</style>
<polygon class="st0" points="923,-173 923,-173 923,-173 923,-173 "/>
<g>
	<g>
		<path class="st1" d="M774.4,716.6c-23.1,17.1-51,32.4-108.8,32.4c-111.8,0-221.9-87.9-221.9-225.3c0-116,88.5-225.4,221.9-225.4
			c137.9,0,223,119.1,223,225.4c0,108.4-69.7,165.1-82,174.4l15.4,21.1l-110.7-6.2l34.8-93.6l17.1,18.8
			c9.6-7.6,46.4-50.2,46.4-114.4c0-77.5-60.5-155.6-143.9-155.9c-78.6-0.3-144.6,72.8-143.8,155.9c1.1,107.3,89.5,155.6,143.8,156.8
			c37.4,0.8,54.5-11.3,63.6-15.7l-17.9,48.2L774.4,716.6z"/>
		<path class="st2" d="M245.5,612.3h-41.1v126.4h-75.9V308.8h116.9c104.3,0,173.8,69.5,173.8,151.7S349.8,612.3,245.5,612.3z
			 M245.5,542.7c56.9,0,94.8-37.9,94.8-82.2s-37.9-82.2-94.8-82.2h-41.1v164.4H245.5z"/>
		<path class="st2" d="M1157.7,564.9l98,173.8h-82.2l-88.5-158h-82.2v158H927V308.8h145.4c94.8,0,158,63.2,158,135.9
			c0,79-72.7,114.4-72.7,113.8V564.9z M1072.4,511.1c48,0,79-31.6,79-66.4c0-34.8-31.6-66.4-79-66.4h-69.5v132.7H1072.4z"/>
		<path class="st2" d="M1440.9,378.4v360.3H1365V378.4h-110.6v-69.5h297.1v69.5H1440.9z"/>
		<path class="st2" d="M1832.2,669.2v69.5h-243.4V308.8h75.9v360.3H1832.2z"/>
	</g>
	<path class="st3" d="M614.8,709.7l136.3-275.9L479.8,568.1l133.1,4.2L614.8,709.7z"/>
	<rect x="319" y="433.8" class="st0" width="0" height="0"/>
	<g>
		<path class="st4" d="M1698.2,314.8V333h-3.8v-18.2h-5.6v-3.5h15v3.5H1698.2z"/>
		<path class="st4" d="M1711.5,320.5h-0.3V333h-3.8v-22.4h0.6l9.8,12l9.8-12h0.6V333h-3.8v-12.5h-0.3l-6.2,7.7L1711.5,320.5z"/>
	</g>
</g>
</svg>
