<?xml version="1.0" encoding="utf-8"?>
<!-- Generator: Adobe Illustrator 22.0.1, SVG Export Plug-In . SVG Version: 6.00 Build 0)  -->
<svg version="1.1" id="Layer_1" xmlns="http://www.w3.org/2000/svg" xmlns:xlink="http://www.w3.org/1999/xlink" x="0px" y="0px"
	 viewBox="0 0 1920 1080" style="enable-background:new 0 0 1920 1080;" xml:space="preserve">
<style type="text/css">
	.st0{stroke:#FFFFFF;stroke-miterlimit:10;}
	.st1{fill-rule:evenodd;clip-rule:evenodd;fill:#FFFFFF;stroke:#CC0033;stroke-width:4;stroke-miterlimit:10;}
	.st2{fill:#FFFFFF;stroke:#CC0033;stroke-width:4;stroke-miterlimit:10;}
	.st3{fill-rule:evenodd;clip-rule:evenodd;fill:#CC0033;}
</style>
<polygon class="st0" points="923,-173 923,-173 923,-173 923,-173 "/>
<g>
	<path class="st1" d="M751.1,750.6c-25,18.5-55.1,35.1-117.7,35.1c-120.9,0-240-95.1-240-243.6c0-125.4,95.7-243.8,240-243.8
		c149.1,0,241.2,128.8,241.2,243.8c0,117.2-75.4,178.6-88.7,188.6l16.6,22.8l-119.7-6.7l37.6-101.3l18.5,20.3
		c10.3-8.3,50.2-54.3,50.2-123.7c0-83.9-65.4-168.2-155.6-168.6c-85-0.4-156.4,78.7-155.5,168.6c1.2,116.1,96.8,168.3,155.5,169.5
		c40.4,0.9,58.9-12.2,68.7-16.9l-19.3,52.1L751.1,750.6z"/>
	<path class="st2" d="M179.2,637.8h-44.4v136.7h-82V309.6h126.5c112.8,0,188,75.2,188,164.1S292,637.8,179.2,637.8z M179.2,562.6
		c61.5,0,102.5-41,102.5-88.9s-41-88.9-102.5-88.9h-44.4v177.7H179.2z"/>
	<path class="st2" d="M1165.6,586.5l106,188h-88.9L1087,603.6h-88.9v170.9h-82V309.6h157.2c102.5,0,170.9,68.4,170.9,147
		c0,85.4-78.6,123.7-78.6,123V586.5z M1073.3,528.4c52,0,85.4-34.2,85.4-71.8c0-37.6-34.2-71.8-85.4-71.8h-75.2v143.6H1073.3z"/>
	<path class="st2" d="M1471.9,384.8v389.6h-82V384.8h-119.6v-75.2h321.3v75.2H1471.9z"/>
	<path class="st2" d="M1895,699.3v75.2h-263.2V309.6h82v389.6H1895z"/>
</g>
<path class="st3" d="M614.8,709.7l136.3-275.9L479.8,568.1l133.1,4.2L614.8,709.7z"/>
<rect x="319" y="433.8" class="st0" width="0" height="0"/>
</svg>
